<?xml version="1.0" encoding="UTF-8" standalone="no"?>
<!-- Created by Hexogen 0.01-alpha -->
<svg
   xmlns:dc="http://purl.org/dc/elements/1.1/"
   xmlns:cc="http://creativecommons.org/ns#"
   xmlns:rdf="http://www.w3.org/1999/02/22-rdf-syntax-ns#"
   xmlns:svg="http://www.w3.org/2000/svg"
   xmlns="http://www.w3.org/2000/svg"
   xmlns:xlink="http://www.w3.org/1999/xlink"
   width="1000px"
   height="1000px">
  <metadata>
    <rdf:RDF>
      <cc:Work
         rdf:about="">
        <dc:format>image/svg+xml</dc:format>
        <dc:type
           rdf:resource="http://purl.org/dc/dcmitype/StillINAMEmage" />
      </cc:Work>
    </rdf:RDF>
  </metadata>
  <defs>
    <style type="text/css"><![CDATA[
      path.white {
        fill: white;
        stroke: black;
        stroke-width: 0.5
      }

      path.shape-removed {
        fill: #FF5050;
        stroke: black;
        stroke-width: 0.5;
      }
      
      path.shape-new {
        fill: greenyellow;
        stroke: black;
        stroke-width: 0.5;
      }    

      path.blue {
        fill: lightblue;
        stroke: black;
        stroke-width: 0.5;
      }      
      
      path.shape {
        fill: red;
        stroke: white;
        stroke-width: 0.5;
      }      
      
      text {
        font-family: Monospace;
        fill: black;
        text-anchor: middle;
      }
      
    ]]></style>
  </defs>
  <g transform="translate(400, 400) rotate(0)">
    <g id="MainLayer">
        <path id="Hexagon (7, 3)" class= "white" d="M 151.55, -87.50 L 173.21, -100.00 L 173.21, -125.00 L 151.55, -137.50 L 129.90, -125.00 L 129.90, -100.00 z"/>
        <path id="Hexagon (4, 4)" class= "white" d="M 86.60, -125.00 L 108.25, -137.50 L 108.25, -162.50 L 86.60, -175.00 L 64.95, -162.50 L 64.95, -137.50 z"/>
        <path id="Hexagon (-2, 0)" class= "blue" d="M -43.30, 25.00 L -21.65, 12.50 L -21.65, -12.50 L -43.30, -25.00 L -64.95, -12.50 L -64.95, 12.50 z"/>
        <path id="Hexagon (-7, -3)" class= "white" d="M -151.55, 137.50 L -129.90, 125.00 L -129.90, 100.00 L -151.55, 87.50 L -173.21, 100.00 L -173.21, 125.00 z"/>
        <path id="Hexagon (1, -5)" class= "white" d="M 21.65, 212.50 L 43.30, 200.00 L 43.30, 175.00 L 21.65, 162.50 L 0.00, 175.00 L 0.00, 200.00 z"/>
        <path id="Hexagon (-4, -6)" class= "white" d="M -86.60, 250.00 L -64.95, 237.50 L -64.95, 212.50 L -86.60, 200.00 L -108.25, 212.50 L -108.25, 237.50 z"/>
        <path id="Hexagon (4, 0)" class= "blue" d="M 86.60, 25.00 L 108.25, 12.50 L 108.25, -12.50 L 86.60, -25.00 L 64.95, -12.50 L 64.95, 12.50 z"/>
        <path id="Hexagon (-9, -1)" class= "white" d="M -194.86, 62.50 L -173.21, 50.00 L -173.21, 25.00 L -194.86, 12.50 L -216.51, 25.00 L -216.51, 50.00 z"/>
        <path id="Hexagon (-5, 1)" class= "white" d="M -108.25, -12.50 L -86.60, -25.00 L -86.60, -50.00 L -108.25, -62.50 L -129.90, -50.00 L -129.90, -25.00 z"/>
        <path id="Hexagon (-5, -5)" class= "white" d="M -108.25, 212.50 L -86.60, 200.00 L -86.60, 175.00 L -108.25, 162.50 L -129.90, 175.00 L -129.90, 200.00 z"/>
        <path id="Hexagon (-8, -4)" class= "white" d="M -173.21, 175.00 L -151.55, 162.50 L -151.55, 137.50 L -173.21, 125.00 L -194.86, 137.50 L -194.86, 162.50 z"/>
        <path id="Hexagon (5, -3)" class= "white" d="M 108.25, 137.50 L 129.90, 125.00 L 129.90, 100.00 L 108.25, 87.50 L 86.60, 100.00 L 86.60, 125.00 z"/>
        <path id="Hexagon (0, 4)" class= "white" d="M 0.00, -125.00 L 21.65, -137.50 L 21.65, -162.50 L 0.00, -175.00 L -21.65, -162.50 L -21.65, -137.50 z"/>
        <path id="Hexagon (5, 3)" class= "white" d="M 108.25, -87.50 L 129.90, -100.00 L 129.90, -125.00 L 108.25, -137.50 L 86.60, -125.00 L 86.60, -100.00 z"/>
        <path id="Hexagon (1, 1)" class= "blue" d="M 21.65, -12.50 L 43.30, -25.00 L 43.30, -50.00 L 21.65, -62.50 L 0.00, -50.00 L 0.00, -25.00 z"/>
        <path id="Hexagon (-2, 6)" class= "white" d="M -43.30, -200.00 L -21.65, -212.50 L -21.65, -237.50 L -43.30, -250.00 L -64.95, -237.50 L -64.95, -212.50 z"/>
        <path id="Hexagon (2, 6)" class= "white" d="M 43.30, -200.00 L 64.95, -212.50 L 64.95, -237.50 L 43.30, -250.00 L 21.65, -237.50 L 21.65, -212.50 z"/>
        <path id="Hexagon (8, 2)" class= "white" d="M 173.21, -50.00 L 194.86, -62.50 L 194.86, -87.50 L 173.21, -100.00 L 151.55, -87.50 L 151.55, -62.50 z"/>
        <path id="Hexagon (-1, -1)" class= "blue" d="M -21.65, 62.50 L 0.00, 50.00 L 0.00, 25.00 L -21.65, 12.50 L -43.30, 25.00 L -43.30, 50.00 z"/>
        <path id="Hexagon (6, 0)" class= "white" d="M 129.90, 25.00 L 151.55, 12.50 L 151.55, -12.50 L 129.90, -25.00 L 108.25, -12.50 L 108.25, 12.50 z"/>
        <path id="Hexagon (-11, -1)" class= "white" d="M -238.16, 62.50 L -216.51, 50.00 L -216.51, 25.00 L -238.16, 12.50 L -259.81, 25.00 L -259.81, 50.00 z"/>
        <path id="Hexagon (-3, 1)" class= "white" d="M -64.95, -12.50 L -43.30, -25.00 L -43.30, -50.00 L -64.95, -62.50 L -86.60, -50.00 L -86.60, -25.00 z"/>
        <path id="Hexagon (4, -4)" class= "white" d="M 86.60, 175.00 L 108.25, 162.50 L 108.25, 137.50 L 86.60, 125.00 L 64.95, 137.50 L 64.95, 162.50 z"/>
        <path id="Hexagon (9, 3)" class= "white" d="M 194.86, -87.50 L 216.51, -100.00 L 216.51, -125.00 L 194.86, -137.50 L 173.21, -125.00 L 173.21, -100.00 z"/>
        <path id="Hexagon (-7, 3)" class= "white" d="M -151.55, -87.50 L -129.90, -100.00 L -129.90, -125.00 L -151.55, -137.50 L -173.21, -125.00 L -173.21, -100.00 z"/>
        <path id="Hexagon (4, -6)" class= "white" d="M 86.60, 250.00 L 108.25, 237.50 L 108.25, 212.50 L 86.60, 200.00 L 64.95, 212.50 L 64.95, 237.50 z"/>
        <path id="Hexagon (-7, 5)" class= "white" d="M -151.55, -162.50 L -129.90, -175.00 L -129.90, -200.00 L -151.55, -212.50 L -173.21, -200.00 L -173.21, -175.00 z"/>
        <path id="Hexagon (3, 1)" class= "white" d="M 64.95, -12.50 L 86.60, -25.00 L 86.60, -50.00 L 64.95, -62.50 L 43.30, -50.00 L 43.30, -25.00 z"/>
        <path id="Hexagon (-2, -2)" class= "white" d="M -43.30, 100.00 L -21.65, 87.50 L -21.65, 62.50 L -43.30, 50.00 L -64.95, 62.50 L -64.95, 87.50 z"/>
        <path id="Hexagon (-6, 2)" class= "white" d="M -129.90, -50.00 L -108.25, -62.50 L -108.25, -87.50 L -129.90, -100.00 L -151.55, -87.50 L -151.55, -62.50 z"/>
        <path id="Hexagon (9, -3)" class= "white" d="M 194.86, 137.50 L 216.51, 125.00 L 216.51, 100.00 L 194.86, 87.50 L 173.21, 100.00 L 173.21, 125.00 z"/>
        <path id="Hexagon (-6, -2)" class= "white" d="M -129.90, 100.00 L -108.25, 87.50 L -108.25, 62.50 L -129.90, 50.00 L -151.55, 62.50 L -151.55, 87.50 z"/>
        <path id="Hexagon (7, -5)" class= "white" d="M 151.55, 212.50 L 173.21, 200.00 L 173.21, 175.00 L 151.55, 162.50 L 129.90, 175.00 L 129.90, 200.00 z"/>
        <path id="Hexagon (-2, 4)" class= "white" d="M -43.30, -125.00 L -21.65, -137.50 L -21.65, -162.50 L -43.30, -175.00 L -64.95, -162.50 L -64.95, -137.50 z"/>
        <path id="Hexagon (0, -6)" class= "white" d="M 0.00, 250.00 L 21.65, 237.50 L 21.65, 212.50 L 0.00, 200.00 L -21.65, 212.50 L -21.65, 237.50 z"/>
        <path id="Hexagon (3, -3)" class= "white" d="M 64.95, 137.50 L 86.60, 125.00 L 86.60, 100.00 L 64.95, 87.50 L 43.30, 100.00 L 43.30, 125.00 z"/>
        <path id="Hexagon (-1, -3)" class= "white" d="M -21.65, 137.50 L 0.00, 125.00 L 0.00, 100.00 L -21.65, 87.50 L -43.30, 100.00 L -43.30, 125.00 z"/>
        <path id="Hexagon (-12, 0)" class= "white" d="M -259.81, 25.00 L -238.16, 12.50 L -238.16, -12.50 L -259.81, -25.00 L -281.46, -12.50 L -281.46, 12.50 z"/>
        <path id="Hexagon (7, -1)" class= "white" d="M 151.55, 62.50 L 173.21, 50.00 L 173.21, 25.00 L 151.55, 12.50 L 129.90, 25.00 L 129.90, 50.00 z"/>
        <path id="Hexagon (5, -5)" class= "white" d="M 108.25, 212.50 L 129.90, 200.00 L 129.90, 175.00 L 108.25, 162.50 L 86.60, 175.00 L 86.60, 200.00 z"/>
        <path id="Hexagon (5, 1)" class= "white" d="M 108.25, -12.50 L 129.90, -25.00 L 129.90, -50.00 L 108.25, -62.50 L 86.60, -50.00 L 86.60, -25.00 z"/>
        <path id="Hexagon (6, -2)" class= "white" d="M 129.90, 100.00 L 151.55, 87.50 L 151.55, 62.50 L 129.90, 50.00 L 108.25, 62.50 L 108.25, 87.50 z"/>
        <path id="Hexagon (4, -2)" class= "white" d="M 86.60, 100.00 L 108.25, 87.50 L 108.25, 62.50 L 86.60, 50.00 L 64.95, 62.50 L 64.95, 87.50 z"/>
        <path id="Hexagon (-1, 1)" class= "white" d="M -21.65, -12.50 L 0.00, -25.00 L 0.00, -50.00 L -21.65, -62.50 L -43.30, -50.00 L -43.30, -25.00 z"/>
        <path id="Hexagon (-9, 3)" class= "white" d="M -194.86, -87.50 L -173.21, -100.00 L -173.21, -125.00 L -194.86, -137.50 L -216.51, -125.00 L -216.51, -100.00 z"/>
        <path id="Hexagon (8, -4)" class= "white" d="M 173.21, 175.00 L 194.86, 162.50 L 194.86, 137.50 L 173.21, 125.00 L 151.55, 137.50 L 151.55, 162.50 z"/>
        <path id="Hexagon (1, 5)" class= "white" d="M 21.65, -162.50 L 43.30, -175.00 L 43.30, -200.00 L 21.65, -212.50 L 0.00, -200.00 L 0.00, -175.00 z"/>
        <path id="Hexagon (-8, 2)" class= "white" d="M -173.21, -50.00 L -151.55, -62.50 L -151.55, -87.50 L -173.21, -100.00 L -194.86, -87.50 L -194.86, -62.50 z"/>
        <path id="Hexagon (2, 2)" class= "white" d="M 43.30, -50.00 L 64.95, -62.50 L 64.95, -87.50 L 43.30, -100.00 L 21.65, -87.50 L 21.65, -62.50 z"/>
        <path id="Hexagon (7, -3)" class= "white" d="M 151.55, 137.50 L 173.21, 125.00 L 173.21, 100.00 L 151.55, 87.50 L 129.90, 100.00 L 129.90, 125.00 z"/>
        <path id="Hexagon (-10, 0)" class= "white" d="M -216.51, 25.00 L -194.86, 12.50 L -194.86, -12.50 L -216.51, -25.00 L -238.16, -12.50 L -238.16, 12.50 z"/>
        <path id="Hexagon (5, -1)" class= "white" d="M 108.25, 62.50 L 129.90, 50.00 L 129.90, 25.00 L 108.25, 12.50 L 86.60, 25.00 L 86.60, 50.00 z"/>
        <path id="Hexagon (6, 4)" class= "white" d="M 129.90, -125.00 L 151.55, -137.50 L 151.55, -162.50 L 129.90, -175.00 L 108.25, -162.50 L 108.25, -137.50 z"/>
        <path id="Hexagon (2, -2)" class= "white" d="M 43.30, 100.00 L 64.95, 87.50 L 64.95, 62.50 L 43.30, 50.00 L 21.65, 62.50 L 21.65, 87.50 z"/>
        <path id="Hexagon (7, 1)" class= "white" d="M 151.55, -12.50 L 173.21, -25.00 L 173.21, -50.00 L 151.55, -62.50 L 129.90, -50.00 L 129.90, -25.00 z"/>
        <path id="Hexagon (-2, 2)" class= "white" d="M -43.30, -50.00 L -21.65, -62.50 L -21.65, -87.50 L -43.30, -100.00 L -64.95, -87.50 L -64.95, -62.50 z"/>
        <path id="Hexagon (-3, -5)" class= "white" d="M -64.95, 212.50 L -43.30, 200.00 L -43.30, 175.00 L -64.95, 162.50 L -86.60, 175.00 L -86.60, 200.00 z"/>
        <path id="Hexagon (-1, -5)" class= "white" d="M -21.65, 212.50 L 0.00, 200.00 L 0.00, 175.00 L -21.65, 162.50 L -43.30, 175.00 L -43.30, 200.00 z"/>
        <path id="Hexagon (-4, -2)" class= "white" d="M -86.60, 100.00 L -64.95, 87.50 L -64.95, 62.50 L -86.60, 50.00 L -108.25, 62.50 L -108.25, 87.50 z"/>
        <path id="Hexagon (3, -1)" class= "white" d="M 64.95, 62.50 L 86.60, 50.00 L 86.60, 25.00 L 64.95, 12.50 L 43.30, 25.00 L 43.30, 50.00 z"/>
        <path id="Hexagon (0, -2)" class= "white" d="M 0.00, 100.00 L 21.65, 87.50 L 21.65, 62.50 L 0.00, 50.00 L -21.65, 62.50 L -21.65, 87.50 z"/>
        <path id="Hexagon (0, 2)" class= "white" d="M 0.00, -50.00 L 21.65, -62.50 L 21.65, -87.50 L 0.00, -100.00 L -21.65, -87.50 L -21.65, -62.50 z"/>
        <path id="Hexagon (1, 3)" class= "white" d="M 21.65, -87.50 L 43.30, -100.00 L 43.30, -125.00 L 21.65, -137.50 L 0.00, -125.00 L 0.00, -100.00 z"/>
        <path id="Hexagon (-3, -1)" class= "white" d="M -64.95, 62.50 L -43.30, 50.00 L -43.30, 25.00 L -64.95, 12.50 L -86.60, 25.00 L -86.60, 50.00 z"/>
        <path id="Hexagon (-11, 1)" class= "white" d="M -238.16, -12.50 L -216.51, -25.00 L -216.51, -50.00 L -238.16, -62.50 L -259.81, -50.00 L -259.81, -25.00 z"/>
        <path id="Hexagon (8, 0)" class= "white" d="M 173.21, 25.00 L 194.86, 12.50 L 194.86, -12.50 L 173.21, -25.00 L 151.55, -12.50 L 151.55, 12.50 z"/>
        <path id="Hexagon (4, 6)" class= "white" d="M 86.60, -200.00 L 108.25, -212.50 L 108.25, -237.50 L 86.60, -250.00 L 64.95, -237.50 L 64.95, -212.50 z"/>
        <path id="Hexagon (-4, 2)" class= "white" d="M -86.60, -50.00 L -64.95, -62.50 L -64.95, -87.50 L -86.60, -100.00 L -108.25, -87.50 L -108.25, -62.50 z"/>
        <path id="Hexagon (6, 2)" class= "white" d="M 129.90, -50.00 L 151.55, -62.50 L 151.55, -87.50 L 129.90, -100.00 L 108.25, -87.50 L 108.25, -62.50 z"/>
        <path id="Hexagon (-1, 5)" class= "white" d="M -21.65, -162.50 L 0.00, -175.00 L 0.00, -200.00 L -21.65, -212.50 L -43.30, -200.00 L -43.30, -175.00 z"/>
        <path id="Hexagon (-3, 3)" class= "white" d="M -64.95, -87.50 L -43.30, -100.00 L -43.30, -125.00 L -64.95, -137.50 L -86.60, -125.00 L -86.60, -100.00 z"/>
        <path id="Hexagon (1, -1)" class= "white" d="M 21.65, 62.50 L 43.30, 50.00 L 43.30, 25.00 L 21.65, 12.50 L 0.00, 25.00 L 0.00, 50.00 z"/>
        <path id="Hexagon (6, 6)" class= "white" d="M 129.90, -200.00 L 151.55, -212.50 L 151.55, -237.50 L 129.90, -250.00 L 108.25, -237.50 L 108.25, -212.50 z"/>
        <path id="Hexagon (2, -4)" class= "white" d="M 43.30, 175.00 L 64.95, 162.50 L 64.95, 137.50 L 43.30, 125.00 L 21.65, 137.50 L 21.65, 162.50 z"/>
        <path id="Hexagon (3, -5)" class= "white" d="M 64.95, 212.50 L 86.60, 200.00 L 86.60, 175.00 L 64.95, 162.50 L 43.30, 175.00 L 43.30, 200.00 z"/>
        <path id="Hexagon (-6, 4)" class= "white" d="M -129.90, -125.00 L -108.25, -137.50 L -108.25, -162.50 L -129.90, -175.00 L -151.55, -162.50 L -151.55, -137.50 z"/>
        <path id="Hexagon (-5, -1)" class= "white" d="M -108.25, 62.50 L -86.60, 50.00 L -86.60, 25.00 L -108.25, 12.50 L -129.90, 25.00 L -129.90, 50.00 z"/>
        <path id="Hexagon (-9, 1)" class= "white" d="M -194.86, -12.50 L -173.21, -25.00 L -173.21, -50.00 L -194.86, -62.50 L -216.51, -50.00 L -216.51, -25.00 z"/>
        <path id="Hexagon (10, 0)" class= "white" d="M 216.51, 25.00 L 238.16, 12.50 L 238.16, -12.50 L 216.51, -25.00 L 194.86, -12.50 L 194.86, 12.50 z"/>
        <path id="Hexagon (3, 5)" class= "white" d="M 64.95, -162.50 L 86.60, -175.00 L 86.60, -200.00 L 64.95, -212.50 L 43.30, -200.00 L 43.30, -175.00 z"/>
        <path id="Hexagon (2, -6)" class= "white" d="M 43.30, 250.00 L 64.95, 237.50 L 64.95, 212.50 L 43.30, 200.00 L 21.65, 212.50 L 21.65, 237.50 z"/>
        <path id="Hexagon (-8, -2)" class= "white" d="M -173.21, 100.00 L -151.55, 87.50 L -151.55, 62.50 L -173.21, 50.00 L -194.86, 62.50 L -194.86, 87.50 z"/>
        <path id="Hexagon (5, 5)" class= "white" d="M 108.25, -162.50 L 129.90, -175.00 L 129.90, -200.00 L 108.25, -212.50 L 86.60, -200.00 L 86.60, -175.00 z"/>
        <path id="Hexagon (4, 2)" class= "white" d="M 86.60, -50.00 L 108.25, -62.50 L 108.25, -87.50 L 86.60, -100.00 L 64.95, -87.50 L 64.95, -62.50 z"/>
        <path id="Hexagon (-5, 3)" class= "white" d="M -108.25, -87.50 L -86.60, -100.00 L -86.60, -125.00 L -108.25, -137.50 L -129.90, -125.00 L -129.90, -100.00 z"/>
        <path id="Hexagon (-5, -3)" class= "white" d="M -108.25, 137.50 L -86.60, 125.00 L -86.60, 100.00 L -108.25, 87.50 L -129.90, 100.00 L -129.90, 125.00 z"/>
        <path id="Hexagon (-4, 4)" class= "white" d="M -86.60, -125.00 L -64.95, -137.50 L -64.95, -162.50 L -86.60, -175.00 L -108.25, -162.50 L -108.25, -137.50 z"/>
        <path id="Hexagon (-7, -1)" class= "white" d="M -151.55, 62.50 L -129.90, 50.00 L -129.90, 25.00 L -151.55, 12.50 L -173.21, 25.00 L -173.21, 50.00 z"/>
        <path id="Hexagon (12, 0)" class= "white" d="M 259.81, 25.00 L 281.46, 12.50 L 281.46, -12.50 L 259.81, -25.00 L 238.16, -12.50 L 238.16, 12.50 z"/>
        <path id="Hexagon (-1, 3)" class= "white" d="M -21.65, -87.50 L 0.00, -100.00 L 0.00, -125.00 L -21.65, -137.50 L -43.30, -125.00 L -43.30, -100.00 z"/>
        <path id="Hexagon (10, -2)" class= "white" d="M 216.51, 100.00 L 238.16, 87.50 L 238.16, 62.50 L 216.51, 50.00 L 194.86, 62.50 L 194.86, 87.50 z"/>
        <path id="Hexagon (0, 6)" class= "white" d="M 0.00, -200.00 L 21.65, -212.50 L 21.65, -237.50 L 0.00, -250.00 L -21.65, -237.50 L -21.65, -212.50 z"/>
        <path id="Hexagon (-8, 0)" class= "white" d="M -173.21, 25.00 L -151.55, 12.50 L -151.55, -12.50 L -173.21, -25.00 L -194.86, -12.50 L -194.86, 12.50 z"/>
        <path id="Hexagon (2, 4)" class= "white" d="M 43.30, -125.00 L 64.95, -137.50 L 64.95, -162.50 L 43.30, -175.00 L 21.65, -162.50 L 21.65, -137.50 z"/>
        <path id="Hexagon (8, 4)" class= "white" d="M 173.21, -125.00 L 194.86, -137.50 L 194.86, -162.50 L 173.21, -175.00 L 151.55, -162.50 L 151.55, -137.50 z"/>
        <path id="Hexagon (-10, 2)" class= "white" d="M -216.51, -50.00 L -194.86, -62.50 L -194.86, -87.50 L -216.51, -100.00 L -238.16, -87.50 L -238.16, -62.50 z"/>
        <path id="Hexagon (9, 1)" class= "white" d="M 194.86, -12.50 L 216.51, -25.00 L 216.51, -50.00 L 194.86, -62.50 L 173.21, -50.00 L 173.21, -25.00 z"/>
        <path id="Hexagon (-6, -6)" class= "white" d="M -129.90, 250.00 L -108.25, 237.50 L -108.25, 212.50 L -129.90, 200.00 L -151.55, 212.50 L -151.55, 237.50 z"/>
        <path id="Hexagon (-5, 5)" class= "white" d="M -108.25, -162.50 L -86.60, -175.00 L -86.60, -200.00 L -108.25, -212.50 L -129.90, -200.00 L -129.90, -175.00 z"/>
        <path id="Hexagon (-2, -6)" class= "white" d="M -43.30, 250.00 L -21.65, 237.50 L -21.65, 212.50 L -43.30, 200.00 L -64.95, 212.50 L -64.95, 237.50 z"/>
        <path id="Hexagon (-9, -3)" class= "white" d="M -194.86, 137.50 L -173.21, 125.00 L -173.21, 100.00 L -194.86, 87.50 L -216.51, 100.00 L -216.51, 125.00 z"/>
        <path id="Hexagon (6, -6)" class= "white" d="M 129.90, 250.00 L 151.55, 237.50 L 151.55, 212.50 L 129.90, 200.00 L 108.25, 212.50 L 108.25, 237.50 z"/>
        <path id="Hexagon (7, 5)" class= "white" d="M 151.55, -162.50 L 173.21, -175.00 L 173.21, -200.00 L 151.55, -212.50 L 129.90, -200.00 L 129.90, -175.00 z"/>
        <path id="Hexagon (-3, -3)" class= "white" d="M -64.95, 137.50 L -43.30, 125.00 L -43.30, 100.00 L -64.95, 87.50 L -86.60, 100.00 L -86.60, 125.00 z"/>
        <path id="Hexagon (11, -1)" class= "white" d="M 238.16, 62.50 L 259.81, 50.00 L 259.81, 25.00 L 238.16, 12.50 L 216.51, 25.00 L 216.51, 50.00 z"/>
        <path id="Hexagon (2, 0)" class= "blue" d="M 43.30, 25.00 L 64.95, 12.50 L 64.95, -12.50 L 43.30, -25.00 L 21.65, -12.50 L 21.65, 12.50 z"/>
        <path id="Hexagon (6, -4)" class= "white" d="M 129.90, 175.00 L 151.55, 162.50 L 151.55, 137.50 L 129.90, 125.00 L 108.25, 137.50 L 108.25, 162.50 z"/>
        <path id="Hexagon (-4, -4)" class= "white" d="M -86.60, 175.00 L -64.95, 162.50 L -64.95, 137.50 L -86.60, 125.00 L -108.25, 137.50 L -108.25, 162.50 z"/>
        <path id="Hexagon (-4, 6)" class= "white" d="M -86.60, -200.00 L -64.95, -212.50 L -64.95, -237.50 L -86.60, -250.00 L -108.25, -237.50 L -108.25, -212.50 z"/>
        <path id="Hexagon (8, -2)" class= "white" d="M 173.21, 100.00 L 194.86, 87.50 L 194.86, 62.50 L 173.21, 50.00 L 151.55, 62.50 L 151.55, 87.50 z"/>
        <path id="Hexagon (11, 1)" class= "white" d="M 238.16, -12.50 L 259.81, -25.00 L 259.81, -50.00 L 238.16, -62.50 L 216.51, -50.00 L 216.51, -25.00 z"/>
        <path id="Hexagon (1, -3)" class= "white" d="M 21.65, 137.50 L 43.30, 125.00 L 43.30, 100.00 L 21.65, 87.50 L 0.00, 100.00 L 0.00, 125.00 z"/>
        <path id="Hexagon (0, -4)" class= "white" d="M 0.00, 175.00 L 21.65, 162.50 L 21.65, 137.50 L 0.00, 125.00 L -21.65, 137.50 L -21.65, 162.50 z"/>
        <path id="Hexagon (0, 0)" class= "blue" d="M 0.00, 25.00 L 21.65, 12.50 L 21.65, -12.50 L 0.00, -25.00 L -21.65, -12.50 L -21.65, 12.50 z"/>
        <path id="Hexagon (-6, -4)" class= "white" d="M -129.90, 175.00 L -108.25, 162.50 L -108.25, 137.50 L -129.90, 125.00 L -151.55, 137.50 L -151.55, 162.50 z"/>
        <path id="Hexagon (9, -1)" class= "white" d="M 194.86, 62.50 L 216.51, 50.00 L 216.51, 25.00 L 194.86, 12.50 L 173.21, 25.00 L 173.21, 50.00 z"/>
        <path id="Hexagon (-4, 0)" class= "white" d="M -86.60, 25.00 L -64.95, 12.50 L -64.95, -12.50 L -86.60, -25.00 L -108.25, -12.50 L -108.25, 12.50 z"/>
        <path id="Hexagon (-3, 5)" class= "white" d="M -64.95, -162.50 L -43.30, -175.00 L -43.30, -200.00 L -64.95, -212.50 L -86.60, -200.00 L -86.60, -175.00 z"/>
        <path id="Hexagon (3, 3)" class= "white" d="M 64.95, -87.50 L 86.60, -100.00 L 86.60, -125.00 L 64.95, -137.50 L 43.30, -125.00 L 43.30, -100.00 z"/>
        <path id="Hexagon (-6, 6)" class= "white" d="M -129.90, -200.00 L -108.25, -212.50 L -108.25, -237.50 L -129.90, -250.00 L -151.55, -237.50 L -151.55, -212.50 z"/>
        <path id="Hexagon (-8, 4)" class= "white" d="M -173.21, -125.00 L -151.55, -137.50 L -151.55, -162.50 L -173.21, -175.00 L -194.86, -162.50 L -194.86, -137.50 z"/>
        <path id="Hexagon (-2, -4)" class= "white" d="M -43.30, 175.00 L -21.65, 162.50 L -21.65, 137.50 L -43.30, 125.00 L -64.95, 137.50 L -64.95, 162.50 z"/>
        <path id="Hexagon (-7, -5)" class= "white" d="M -151.55, 212.50 L -129.90, 200.00 L -129.90, 175.00 L -151.55, 162.50 L -173.21, 175.00 L -173.21, 200.00 z"/>
        <path id="Hexagon (-7, 1)" class= "white" d="M -151.55, -12.50 L -129.90, -25.00 L -129.90, -50.00 L -151.55, -62.50 L -173.21, -50.00 L -173.21, -25.00 z"/>
        <path id="Hexagon (-6, 0)" class= "white" d="M -129.90, 25.00 L -108.25, 12.50 L -108.25, -12.50 L -129.90, -25.00 L -151.55, -12.50 L -151.55, 12.50 z"/>
        <path id="Hexagon (10, 2)" class= "white" d="M 216.51, -50.00 L 238.16, -62.50 L 238.16, -87.50 L 216.51, -100.00 L 194.86, -87.50 L 194.86, -62.50 z"/>
        <path id="Hexagon (-10, -2)" class= "white" d="M -216.51, 100.00 L -194.86, 87.50 L -194.86, 62.50 L -216.51, 50.00 L -238.16, 62.50 L -238.16, 87.50 z"/>
        <g transform="translate(-43.30, -0.00)">
          <path id="Hexagon"
                class= "shape"
                d="M 7.36, 20.75 L 14.29, 16.75 C 12.29, 13.29 17.65, 4.00 21.65, 4.00 L 21.65, -4.00 C 17.65, -4.00 12.29, -13.29 14.29, -16.75 L 7.36, -20.75 C 5.36, -13.29 -5.36, -17.29 -7.36, -20.75 L -14.29, -16.75 C -12.29, -13.29 -17.65, -4.00 -21.65, -4.00 L -21.65, 4.00 C -5.36, 17.29 5.36, 17.29 7.36, 20.75 z "/>
          <text font-size="3">
            Hexagon
          </text>
        </g>
        <g transform="translate(86.60, -0.00)">
          <path id="prang thing"
                class= "shape"
                d="M 21.65, 4.00 L 21.65, -4.00 C 17.65, -4.00 -5.36, -17.29 -7.36, -20.75 L -14.29, -16.75 C -12.29, -13.29 -17.65, -4.00 -21.65, -4.00 L -21.65, 4.00 C -5.36, 17.29 17.65, 4.00 21.65, 4.00 z "/>
          <text font-size="3">
            prang thing
          </text>
        </g>
        <g transform="translate(21.65, -37.50)">
          <path id="cross"
                class= "shape"
                d="M 7.36, 20.75 L 14.29, 16.75 C 12.29, 13.29 12.29, -13.29 14.29, -16.75 L 7.36, -20.75 C 5.36, -13.29 -5.36, -17.29 -7.36, -20.75 L -14.29, -16.75 C -5.36, 17.29 5.36, 17.29 7.36, 20.75 z "/>
          <text font-size="3">
            cross
          </text>
        </g>
        <g transform="translate(-21.65, 37.50)">
          <path id="Small one way bend"
                class= "shape"
                d="M -7.36, -20.75 L -14.29, -16.75 C -5.36, 17.29 -5.36, -17.29 -7.36, -20.75 z "/>
          <text font-size="3">
            Small one way bend
          </text>
        </g>
        <g transform="translate(43.30, -0.00)">
          <path id="Hexagon"
                class= "shape"
                d="M 7.36, 20.75 L 14.29, 16.75 C 12.29, 13.29 17.65, 4.00 21.65, 4.00 L 21.65, -4.00 C 17.65, -4.00 12.29, -13.29 14.29, -16.75 L 7.36, -20.75 C 5.36, -13.29 -5.36, -17.29 -7.36, -20.75 L -14.29, -16.75 C -12.29, -13.29 -17.65, -4.00 -21.65, -4.00 L -21.65, 4.00 C -5.36, 17.29 5.36, 17.29 7.36, 20.75 z "/>
          <text font-size="3">
            Hexagon
          </text>
        </g>
        <g transform="translate(0.00, -0.00)">
          <path id="Small one way bend"
                class= "shape"
                d="M 14.29, -16.75 L 7.36, -20.75 C -17.65, 4.00 12.29, -13.29 14.29, -16.75 z "/>
          <text font-size="3">
            Small one way bend
          </text>
        </g>
      </g>
  </g>
</svg>